<?xml version="1.0" standalone="no"?>
<!DOCTYPE svg PUBLIC "-//W3C//DTD SVG 20010904//EN"
 "http://www.w3.org/TR/2001/REC-SVG-20010904/DTD/svg10.dtd">
<svg version="1.0" xmlns="http://www.w3.org/2000/svg"
 viewBox="0 0 2600.000000 2600.000000"
 preserveAspectRatio="xMidYMid meet">
<metadata>
Created by potrace 1.15, written by Peter Selinger 2001-2017
</metadata>
<g transform="translate(0.000000,2600.000000) scale(0.100000,-0.100000)"
fill="#000000" stroke="none">
<path d="M17700 20734 c-159 -42 -306 -164 -378 -314 -65 -136 -78 -263 -42
-404 28 -110 74 -190 156 -272 78 -79 192 -143 292 -163 118 -24 290 -3 389
47 146 75 267 223 309 379 21 79 21 235 -1 309 -59 204 -223 367 -421 418 -77
20 -229 20 -304 0z"/>
<path d="M17651 19349 c-62 -19 -116 -64 -144 -121 -14 -29 -53 -109 -86 -178
-146 -306 -480 -717 -923 -1137 -923 -876 -1993 -1480 -2888 -1632 -345 -59
-630 -50 -1695 54 -820 80 -1106 105 -1575 137 -256 17 -1284 17 -1490 0 -847
-72 -1464 -224 -2035 -502 -402 -196 -720 -424 -1038 -742 -174 -174 -203
-222 -194 -318 2 -31 13 -72 22 -91 56 -107 3283 -4460 4070 -5489 424 -554
523 -673 609 -731 51 -34 65 -39 116 -39 106 0 144 22 349 205 559 496 1083
848 1641 1100 600 272 968 350 2390 510 1414 159 2106 279 2895 504 879 250
1495 527 2178 979 1012 670 2095 1737 2948 2903 134 184 153 223 153 304 -1
108 -10 119 -394 467 -1562 1415 -3080 2670 -4075 3368 -224 158 -498 338
-610 403 -87 51 -160 65 -224 46z m429 -763 c902 -623 2188 -1670 3690 -3006
355 -315 604 -541 608 -552 7 -17 -344 -464 -583 -741 -825 -959 -1706 -1731
-2540 -2227 -905 -538 -2077 -887 -3690 -1099 -232 -31 -314 -40 -1108 -131
-1309 -150 -1765 -263 -2457 -610 -533 -267 -942 -546 -1528 -1044 l-35 -30
-24 30 c-332 408 -2055 2715 -3796 5084 -253 344 -463 630 -468 635 -15 20
253 249 436 374 623 425 1408 658 2435 721 212 13 897 13 1150 0 381 -20 845
-57 1430 -115 1552 -155 1844 -155 2425 -5 552 143 1121 411 1715 808 655 438
1276 1001 1729 1567 105 131 278 378 330 472 l24 41 56 -36 c31 -19 121 -81
201 -136z"/>
<path d="M17559 17810 c-72 -135 -333 -433 -661 -755 -344 -338 -643 -597
-993 -860 -789 -592 -1491 -933 -2130 -1031 -242 -37 -849 -20 -2595 76 -1508
83 -2078 101 -2551 82 -337 -14 -433 -22 -649 -58 -500 -82 -880 -242 -1020
-428 -22 -29 -40 -60 -40 -69 0 -12 2973 -3758 3353 -4225 l59 -73 132 129
c504 489 1299 848 2206 997 445 73 698 87 1520 83 715 -3 754 -2 1160 48 2334
283 5030 1625 5815 2895 104 167 216 426 202 464 -3 6 -160 136 -349 287
-2024 1619 -3224 2498 -3408 2498 -13 0 -29 -19 -51 -60z"/>
<path d="M23535 15796 c-169 -41 -322 -169 -395 -331 -36 -79 -50 -148 -50
-248 0 -164 53 -290 170 -408 89 -90 160 -132 266 -159 142 -37 288 -22 421
42 93 45 216 168 261 261 64 133 79 279 42 421 -27 106 -69 177 -159 267 -82
82 -159 127 -266 154 -70 18 -219 18 -290 1z"/>
<path d="M4656 14729 c-72 -15 -193 -74 -251 -122 -144 -121 -215 -267 -218
-447 -2 -177 50 -308 173 -430 120 -120 251 -174 420 -173 166 1 290 53 411
173 111 110 166 228 176 380 17 266 -151 516 -402 599 -80 26 -231 36 -309 20z"/>
<path d="M7428 10836 c-57 -15 -109 -49 -134 -88 -25 -38 -223 -217 -369 -334
-260 -207 -529 -378 -835 -533 -462 -232 -863 -355 -1345 -413 -153 -18 -563
-15 -720 6 -269 35 -513 94 -750 181 -177 65 -200 70 -263 57 -70 -15 -126
-53 -159 -110 -67 -113 -39 -254 65 -326 85 -58 470 -181 740 -235 275 -56
386 -66 732 -66 329 0 409 6 670 51 790 135 1617 530 2285 1091 168 141 329
309 360 375 43 91 30 195 -32 267 -59 70 -158 101 -245 77z"/>
<path d="M7879 9791 c-49 -16 -75 -35 -214 -162 -498 -454 -1084 -857 -1660
-1144 -561 -279 -1071 -437 -1615 -502 -172 -20 -575 -22 -715 -4 -49 7 -124
14 -165 17 -69 6 -79 4 -130 -23 -199 -105 -171 -396 45 -452 152 -39 696 -58
950 -32 652 66 1241 246 1905 582 605 305 1282 780 1758 1234 123 116 147 158
147 250 -1 101 -44 173 -129 217 -43 22 -136 32 -177 19z"/>
<path d="M8402 8699 c-29 -15 -81 -64 -160 -153 -155 -176 -483 -503 -662
-661 -936 -828 -1870 -1295 -2754 -1376 -157 -14 -492 -6 -621 16 -166 28
-210 30 -261 10 -104 -39 -158 -119 -159 -231 0 -61 4 -77 30 -119 45 -73 93
-102 205 -124 189 -37 299 -46 580 -46 300 1 411 12 686 65 901 177 1857 721
2783 1583 283 264 622 632 662 721 52 114 -2 261 -114 315 -60 29 -157 29
-215 0z"/>
<path d="M9838 8464 c-165 -40 -323 -172 -394 -331 -36 -80 -58 -205 -50 -286
14 -149 93 -309 199 -402 61 -54 190 -119 265 -134 199 -41 404 20 546 163
233 233 233 599 1 831 -78 78 -173 134 -271 159 -75 19 -217 20 -296 0z"/>
</g>
</svg>
