<?xml version="1.0" encoding="UTF-8"?>
<svg width="700pt" height="700pt" version="1.1" viewBox="0 0 700 700" xmlns="http://www.w3.org/2000/svg">
 <g fill-rule="evenodd">
  <path d="m349.21 176.06c9.1953 0 16.656 7.4414 16.656 16.609 0 7.6133-5.1328 14.023-12.129 15.992l0.11328 2.0117 0.80078 0.007813-0.007813 0.054687c19.32 0.5625 31.219 4.0938 51.863 15.637h-114.26c20.645-11.543 32.543-15.082 51.863-15.637l-0.007813-0.054687h0.42188l0.09375-2.0391c-6.9648-1.9922-12.062-8.3867-12.062-15.973 0-9.168 7.4531-16.609 16.656-16.609z"/>
  <path d="m311.76 353.86c-2.7695 1.7148-5.3633 3.9297-7.7578 6.8477-19.141 6.8711-34.613 7.2148-43.84 25.629h179.14c-9.2266-18.406-24.699-18.758-43.84-25.629-2.8555-3.4805-6.0039-5.9609-9.3867-7.7852 18.188-5 35.176-14.023 49.797-27.973-5.4297 11.562 3.6133 23.098 20.836 21.266 13.5-1.4414 15.77-14.387 8.3281-18.168-18.918-9.625 161.8-13.91 95.355-86.824-14.895-20.59-74.793-19.262-105.48 3.1094-6.6484-5.2656-23.758 0.93359-36.754-12.508l-135.07 0.19922c-55.68 29.207-74.621 24.625-94.668-36.34-7.918-15.074-13.594-27.145-30.906-19.781l-30.941 13.141c-11.594 4.9336 39.004-4.0938 38.918 35.703 0.46484 53.957 71.293 113.47 146.27 129.12zm156.12-97.098c13.73 19.309 8.7227 40.605-11.43 55.531 49.012-11.363 128.86-21.707 90.555-60.34-16.984-14.652-49.328-16.527-79.125 4.8086z"/>
 </g>
</svg>
