<svg xmlns="http://www.w3.org/2000/svg" height="48" viewBox="0 96 960 960" width="48"><path d="M511 525V280.971q0-11.396 9.749-20.184 9.75-8.787 21.535-8.787h228.931q11.785 0 21.285 8.787 9.5 8.788 9.5 20.23V420.47q0 13.734-9.438 23.132Q783.125 453 771 453H584l-73 72Zm35-107h221V287H546v131Zm0 0V287v131Zm212.898 476Q656 894 549 839T355 697.5Q268 611 213 504t-55-209.898q0-19.531 11.786-31.316Q181.571 251 201 251h92q17.632 0 30.842 11 13.211 11 17.158 28l21 93q3 16-1.5 29t-12.33 18.832L259 514q57 96 128 166t162 121l91-93q9-10 18.477-13.5 9.476-3.5 21.523-.5l82 19q17.875 3.375 28.938 16.787Q802 743.2 802 761v90q0 19.429-11.786 31.214Q778.429 894 758.898 894ZM241 483l81-73q4-4 5.5-11t.5-13l-20.01-84q-1-8-6.5-12t-13.5-4H209q-6 0-10 4t-4 10q-2 40 10.5 86t35.5 97Zm342 334q40 22 88.5 31.5T753 859q6 1 10-3.5t4-10.5v-80q0-8-4-13.5t-12-6.5l-71-16q-6-1-10.5.5T660 735l-77 82ZM241 483Zm342 334Z"/></svg>