<svg xmlns="http://www.w3.org/2000/svg" height="48" viewBox="0 96 960 960" width="48"><path d="M480.353 701Q540 701 582.5 658.147q42.5-42.853 42.5-102.5T582.147 453.5q-42.853-42.5-102.5-42.5T377.5 453.853q-42.5 42.853-42.5 102.5T377.853 658.5q42.853 42.5 102.5 42.5Zm-.882-35Q434 666 402 633.471q-32-32.53-32-78Q370 510 402.529 478q32.53-32 78-32Q526 446 558 478.529q32 32.53 32 78Q590 602 557.471 634q-32.53 32-78 32Zm.672 153Q350 819 241.5 747.5T78 556q55-120 163.357-191.5t238.5-71.5Q610 293 718.5 364.5T882 556q-55 120-163.357 191.5t-238.5 71.5ZM480 556Zm-.169 228Q598 784 694.872 722.918 791.745 661.836 844 556q-52.255-105.836-148.959-166.918Q598.337 328 480.169 328 362 328 264.628 389.082 167.255 450.164 116 556q51.255 105.836 148.459 166.918Q361.663 784 479.831 784Z"/></svg>